<?xml version="1.0" encoding="UTF-8"?>
<!DOCTYPE svg PUBLIC "-//W3C//DTD SVG 1.1//EN" "http://www.w3.org/Graphics/SVG/1.1/DTD/svg11.dtd">
<svg xmlns="http://www.w3.org/2000/svg" version="1.1" width="1414px" height="2000px" style="shape-rendering:geometricPrecision; text-rendering:geometricPrecision; image-rendering:optimizeQuality; fill-rule:evenodd; clip-rule:evenodd" xmlns:xlink="http://www.w3.org/1999/xlink">
<g><path style="opacity:1" fill="#fefefe" d="M -0.5,-0.5 C 470.833,-0.5 942.167,-0.5 1413.5,-0.5C 1413.5,666.167 1413.5,1332.83 1413.5,1999.5C 942.167,1999.5 470.833,1999.5 -0.5,1999.5C -0.5,1332.83 -0.5,666.167 -0.5,-0.5 Z"/></g>
<g><path style="opacity:1" fill="#484848" d="M 707.5,433.5 C 705.585,433.784 703.919,433.451 702.5,432.5C 725.299,410.202 747.965,387.702 770.5,365C 772.259,364.202 773.926,364.369 775.5,365.5C 753.146,388.521 730.479,411.188 707.5,433.5 Z"/></g>
<g><path style="opacity:1" fill="#4c4c4c" d="M 598.5,433.5 C 596.585,433.784 594.919,433.451 593.5,432.5C 616.992,409.508 640.326,386.341 663.5,363C 665.5,362.333 667.5,362.333 669.5,363C 646.046,386.62 622.379,410.12 598.5,433.5 Z"/></g>
<g><path style="opacity:1" fill="#434343" d="M 925.5,433.5 C 923.585,433.784 921.919,433.451 920.5,432.5C 928.841,424.326 937.341,416.326 946,408.5C 947.059,408.63 947.892,409.13 948.5,410C 940.658,417.675 932.992,425.508 925.5,433.5 Z"/></g>
<g><path style="opacity:1" fill="#898989" d="M 593.5,432.5 C 594.919,433.451 596.585,433.784 598.5,433.5C 598.167,434.5 597.5,435.167 596.5,435.5C 595.081,434.549 593.415,434.216 591.5,434.5C 591.833,433.5 592.5,432.833 593.5,432.5 Z"/></g>
<g><path style="opacity:1" fill="#898989" d="M 702.5,432.5 C 703.919,433.451 705.585,433.784 707.5,433.5C 707.167,434.5 706.5,435.167 705.5,435.5C 704.081,434.549 702.415,434.216 700.5,434.5C 700.833,433.5 701.5,432.833 702.5,432.5 Z"/></g>
<g><path style="opacity:1" fill="#898989" d="M 920.5,432.5 C 921.919,433.451 923.585,433.784 925.5,433.5C 925.167,434.5 924.5,435.167 923.5,435.5C 922.081,434.549 920.415,434.216 918.5,434.5C 918.833,433.5 919.5,432.833 920.5,432.5 Z"/></g>
<g><path style="opacity:1" fill="#434343" d="M 918.5,434.5 C 920.415,434.216 922.081,434.549 923.5,435.5C 899.473,458.86 875.806,482.527 852.5,506.5C 850.833,506.5 849.167,506.5 847.5,506.5C 871.167,482.5 894.833,458.5 918.5,434.5 Z"/></g>
<g><path style="opacity:1" fill="#4b4b4b" d="M 801.5,369.5 C 803.527,369.338 805.527,369.505 807.5,370C 564,613.5 320.5,857 77,1100.5C 76.2115,1098.84 75.8782,1097.17 76,1095.5C 318.035,853.632 559.868,611.632 801.5,369.5 Z"/></g>
<g><path style="opacity:1" fill="#4c4c4c" d="M 832.5,374.5 C 834.527,374.338 836.527,374.505 838.5,375C 586.667,626.833 334.833,878.667 83,1130.5C 81.5596,1129.07 81.2263,1127.4 82,1125.5C 332.422,875.245 582.589,624.911 832.5,374.5 Z"/></g>
<g><path style="opacity:1" fill="#4b4b4b" d="M 1124.5,518.5 C 1126.45,519.254 1127.28,520.588 1127,522.5C 827.833,821.667 528.667,1120.83 229.5,1420C 227.647,1420.55 226.313,1419.88 225.5,1418C 525.368,1118.3 825.035,818.465 1124.5,518.5 Z"/></g>
<g><path style="opacity:1" fill="#4b4b4b" d="M 483.5,400.5 C 484.239,400.369 484.906,400.536 485.5,401C 359.306,526.861 233.473,653.027 108,779.5C 108.361,776.076 109.361,772.742 111,769.5C 233.473,648.36 355.306,526.527 476.5,404C 479.069,403.102 481.402,401.935 483.5,400.5 Z"/></g>
<g><path style="opacity:1" fill="#4a4a4a" d="M 598.5,651.5 C 596.585,651.784 594.919,651.451 593.5,650.5C 683.326,561.174 772.992,471.674 862.5,382C 864.259,381.202 865.926,381.369 867.5,382.5C 866.478,383.354 865.645,384.354 865,385.5C 775.994,474.068 687.161,562.735 598.5,651.5 Z"/></g>
<g><path style="opacity:1" fill="#4a4a4a" d="M 816.5,651.5 C 814.585,651.784 812.919,651.451 811.5,650.5C 879.047,583.786 946.047,516.62 1012.5,449C 1014.98,447.357 1017.31,445.524 1019.5,443.5C 1021.39,443.869 1022.22,444.869 1022,446.5C 953.02,514.313 884.52,582.647 816.5,651.5 Z"/></g>
<g><path style="opacity:1" fill="#4e4e4e" d="M 324.5,487.5 C 325.239,487.369 325.906,487.536 326.5,488C 282.721,531.779 238.887,575.613 195,619.5C 194.333,618.833 194.333,618.167 195,617.5C 200,611.167 205,604.833 210,598.5C 242.167,566.333 274.333,534.167 306.5,502C 312.688,497.303 318.688,492.469 324.5,487.5 Z"/></g>
<g><path style="opacity:1" fill="#4b4b4b" d="M 1034.5,651.5 C 1032.59,651.784 1030.92,651.451 1029.5,650.5C 1068.11,612.728 1106.27,574.394 1144,535.5C 1145.68,536.466 1146.34,537.799 1146,539.5C 1108.66,576.674 1071.49,614.008 1034.5,651.5 Z"/></g>
<g><path style="opacity:1" fill="#4e4e4e" d="M 847.5,506.5 C 849.167,506.5 850.833,506.5 852.5,506.5C 804.527,555.14 756.194,603.473 707.5,651.5C 705.585,651.784 703.919,651.451 702.5,650.5C 750.86,602.473 799.194,554.473 847.5,506.5 Z"/></g>
<g><path style="opacity:1" fill="#4b4b4b" d="M 925.5,651.5 C 923.585,651.784 921.919,651.451 920.5,650.5C 974.853,595.313 1029.69,540.647 1085,486.5C 1086.25,487.211 1087.42,488.044 1088.5,489C 1034.33,543.341 979.992,597.508 925.5,651.5 Z"/></g>
<g><path style="opacity:1" fill="#4b4b4b" d="M 418.5,429.5 C 419.239,429.369 419.906,429.536 420.5,430C 326,524.5 231.5,619 137,713.5C 137.712,710.053 139.045,706.719 141,703.5C 230.833,613.667 320.667,523.833 410.5,434C 413.391,432.726 416.058,431.226 418.5,429.5 Z"/></g>
<g><path style="opacity:1" fill="#4b4b4b" d="M 1041.5,456.5 C 1042.97,457.072 1044.31,457.905 1045.5,459C 752.833,751.667 460.167,1044.33 167.5,1337C 165.647,1337.55 164.313,1336.88 163.5,1335C 456.368,1042.3 749.035,749.465 1041.5,456.5 Z"/></g>
<g><path style="opacity:1" fill="#4b4b4b" d="M 579.5,373.5 C 581.527,373.338 583.527,373.505 585.5,374C 417.333,542.167 249.167,710.333 81,878.5C 80.3333,876.5 80.3333,874.5 81,872.5C 247.368,706.299 413.535,539.965 579.5,373.5 Z"/></g>
<g><path style="opacity:1" fill="#898989" d="M 593.5,650.5 C 594.919,651.451 596.585,651.784 598.5,651.5C 598.167,652.5 597.5,653.167 596.5,653.5C 595.081,652.549 593.415,652.216 591.5,652.5C 591.833,651.5 592.5,650.833 593.5,650.5 Z"/></g>
<g><path style="opacity:1" fill="#898989" d="M 702.5,650.5 C 703.919,651.451 705.585,651.784 707.5,651.5C 707.167,652.5 706.5,653.167 705.5,653.5C 704.081,652.549 702.415,652.216 700.5,652.5C 700.833,651.5 701.5,650.833 702.5,650.5 Z"/></g>
<g><path style="opacity:1" fill="#878787" d="M 811.5,650.5 C 812.919,651.451 814.585,651.784 816.5,651.5C 816.167,652.5 815.5,653.167 814.5,653.5C 813.081,652.549 811.415,652.216 809.5,652.5C 809.833,651.5 810.5,650.833 811.5,650.5 Z"/></g>
<g><path style="opacity:1" fill="#898989" d="M 920.5,650.5 C 921.919,651.451 923.585,651.784 925.5,651.5C 925.167,652.5 924.5,653.167 923.5,653.5C 922.081,652.549 920.415,652.216 918.5,652.5C 918.833,651.5 919.5,650.833 920.5,650.5 Z"/></g>
<g><path style="opacity:1" fill="#898989" d="M 1029.5,650.5 C 1030.92,651.451 1032.59,651.784 1034.5,651.5C 1034.17,652.5 1033.5,653.167 1032.5,653.5C 1031.08,652.549 1029.41,652.216 1027.5,652.5C 1027.83,651.5 1028.5,650.833 1029.5,650.5 Z"/></g>
<g><path style="opacity:1" fill="#4d4d4d" d="M 125.5,869.5 C 123.901,869.768 122.568,869.434 121.5,868.5C 288.218,701.282 455.218,534.116 622.5,367C 624.879,366.386 627.212,366.053 629.5,366C 461.605,534.062 293.605,701.895 125.5,869.5 Z"/></g>
<g><path style="opacity:1" fill="#4b4b4b" d="M 700.5,361.5 C 702.527,361.338 704.527,361.505 706.5,362C 494,574.5 281.5,787 69,999.5C 68.3333,997.5 68.3333,995.5 69,993.5C 279.701,782.965 490.201,572.299 700.5,361.5 Z"/></g>
<g><path style="opacity:1" fill="#4b4b4b" d="M 591.5,434.5 C 593.415,434.216 595.081,434.549 596.5,435.5C 421.48,611.353 245.98,786.686 70,961.5C 69.3333,959.833 69.3333,958.167 70,956.5C 243.98,782.686 417.814,608.686 591.5,434.5 Z"/></g>
<g><path style="opacity:1" fill="#4c4c4c" d="M 536.5,383.5 C 537.552,383.351 538.552,383.517 539.5,384C 390.135,533.365 240.635,682.865 91,832.5C 90.8201,829.691 91.4868,827.024 93,824.5C 239.167,678.333 385.333,532.167 531.5,386C 533.315,385.243 534.981,384.41 536.5,383.5 Z"/></g>
<g><path style="opacity:1" fill="#4b4b4b" d="M 1227.5,633.5 C 1229.61,634.052 1230.44,635.386 1230,637.5C 934.833,932.667 639.667,1227.83 344.5,1523C 342.799,1523.34 341.466,1522.68 340.5,1521C 636.368,1225.3 932.035,929.465 1227.5,633.5 Z"/></g>
<g><path style="opacity:1" fill="#4c4c4c" d="M 735.5,362.5 C 737.527,362.338 739.527,362.505 741.5,363C 517.667,586.833 293.833,810.667 70,1034.5C 69.3333,1032.5 69.3333,1030.5 70,1028.5C 291.899,806.767 513.733,584.767 735.5,362.5 Z"/></g>
<g><path style="opacity:1" fill="#4d4d4d" d="M 700.5,434.5 C 702.415,434.216 704.081,434.549 705.5,435.5C 495.134,646.533 284.467,857.2 73.5,1067.5C 72.359,1065.58 72.1923,1063.58 73,1061.5C 282.647,853.02 491.814,644.02 700.5,434.5 Z"/></g>
<g><path style="opacity:1" fill="#4b4b4b" d="M 891.5,388.5 C 893.8,388.522 894.967,389.522 895,391.5C 629.32,657.347 363.486,923.014 97.5,1188.5C 96.3691,1186.93 96.2025,1185.26 97,1183.5C 362.035,918.632 626.868,653.632 891.5,388.5 Z"/></g>
<g><path style="opacity:1" fill="#4a4a4a" d="M 809.5,652.5 C 811.415,652.216 813.081,652.549 814.5,653.5C 710.511,756.964 606.845,860.631 503.5,964.5C 503.784,962.585 503.451,960.919 502.5,959.5C 604.5,856.833 706.833,754.5 809.5,652.5 Z"/></g>
<g><path style="opacity:1" fill="#4a4a4a" d="M 1027.5,652.5 C 1029.41,652.216 1031.08,652.549 1032.5,653.5C 928.597,756.947 824.93,860.614 721.5,964.5C 721.784,962.585 721.451,960.919 720.5,959.5C 822.5,856.833 924.833,754.5 1027.5,652.5 Z"/></g>
<g><path style="opacity:1" fill="#4d4d4d" d="M 939.5,964.5 C 939.784,962.585 939.451,960.919 938.5,959.5C 1039.57,857.593 1141.07,756.259 1243,655.5C 1244.02,656.354 1244.86,657.354 1245.5,658.5C 1143.25,760.079 1041.25,862.079 939.5,964.5 Z"/></g>
<g><path style="opacity:1" fill="#4c4c4c" d="M 1062.5,471.5 C 1064.8,471.522 1065.97,472.522 1066,474.5C 771.167,769.333 476.333,1064.17 181.5,1359C 178.909,1359.3 178.075,1358.13 179,1355.5C 473.701,1060.97 768.201,766.299 1062.5,471.5 Z"/></g>
<g><path style="opacity:1" fill="#4b4b4b" d="M 1268.5,701.5 C 1270.61,702.052 1271.44,703.386 1271,705.5C 984.833,991.667 698.667,1277.83 412.5,1564C 410.226,1564.46 409.059,1563.63 409,1561.5C 695.701,1274.97 982.201,988.299 1268.5,701.5 Z"/></g>
<g><path style="opacity:1" fill="#8f8f8f" d="M 121.5,868.5 C 122.568,869.434 123.901,869.768 125.5,869.5C 125.672,870.492 125.338,871.158 124.5,871.5C 123.081,870.549 121.415,870.216 119.5,870.5C 119.833,869.5 120.5,868.833 121.5,868.5 Z"/></g>
<g><path style="opacity:1" fill="#4c4c4c" d="M 119.5,870.5 C 121.415,870.216 123.081,870.549 124.5,871.5C 107.494,887.839 90.8273,904.506 74.5,921.5C 73.1667,919.5 73.1667,917.5 74.5,915.5C 89.8814,900.785 104.881,885.785 119.5,870.5 Z"/></g>
<g><path style="opacity:1" fill="#4e4e4e" d="M 918.5,652.5 C 920.415,652.216 922.081,652.549 923.5,653.5C 711.779,865.887 499.779,1077.89 287.5,1289.5C 286.566,1288.43 286.232,1287.1 286.5,1285.5C 290.83,1281 294.997,1276.34 299,1271.5C 505.872,1065.79 712.372,859.461 918.5,652.5 Z"/></g>
<g><path style="opacity:1" fill="#4c4c4c" d="M 700.5,652.5 C 702.415,652.216 704.081,652.549 705.5,653.5C 565.86,792.473 426.527,931.806 287.5,1071.5C 286.566,1070.43 286.232,1069.1 286.5,1067.5C 424.554,929.113 562.554,790.779 700.5,652.5 Z"/></g>
<g><path style="opacity:1" fill="#4c4c4c" d="M 1161.5,554.5 C 1163.2,554.685 1164.53,555.519 1165.5,557C 865,857.5 564.5,1158 264,1458.5C 262.322,1457.53 261.655,1456.2 262,1454.5C 562.035,1154.63 861.868,854.632 1161.5,554.5 Z"/></g>
<g><path style="opacity:1" fill="#4b4b4b" d="M 969.5,419.5 C 972.166,419.066 973.333,420.066 973,422.5C 691.442,704.058 409.775,985.725 128,1267.5C 126.813,1265.96 126.48,1264.29 127,1262.5C 408.007,981.659 688.841,700.659 969.5,419.5 Z"/></g>
<g><path style="opacity:1" fill="#414241" d="M 502.5,959.5 C 503.451,960.919 503.784,962.585 503.5,964.5C 486.5,981.167 469.5,997.833 452.5,1014.5C 451.167,1014.5 449.833,1014.5 448.5,1014.5C 466.5,996.167 484.5,977.833 502.5,959.5 Z"/></g>
<g><path style="opacity:1" fill="#424242" d="M 720.5,959.5 C 721.451,960.919 721.784,962.585 721.5,964.5C 704.5,981.167 687.5,997.833 670.5,1014.5C 668.901,1014.77 667.568,1014.43 666.5,1013.5C 684.806,995.86 702.806,977.86 720.5,959.5 Z"/></g>
<g><path style="opacity:1" fill="#424242" d="M 938.5,959.5 C 939.451,960.919 939.784,962.585 939.5,964.5C 922.5,981.167 905.5,997.833 888.5,1014.5C 886.901,1014.77 885.568,1014.43 884.5,1013.5C 902.806,995.86 920.806,977.86 938.5,959.5 Z"/></g>
<g><path style="opacity:1" fill="#4d4d4d" d="M 1255.5,678.5 C 1258.08,678.722 1258.91,680.055 1258,682.5C 967.973,972.527 677.973,1262.53 388,1552.5C 386.745,1551.79 385.579,1550.96 384.5,1550C 675.035,1259.63 965.368,969.132 1255.5,678.5 Z"/></g>
<g><path style="opacity:1" fill="#4c4c4c" d="M 591.5,652.5 C 593.415,652.216 595.081,652.549 596.5,653.5C 427.908,822.758 258.908,991.758 89.5,1160.5C 88.3691,1158.93 88.2025,1157.26 89,1155.5C 256.701,987.965 424.201,820.299 591.5,652.5 Z"/></g>
<g><path style="opacity:1" fill="#4b4b4b" d="M 917.5,398.5 C 919.288,398.215 920.955,398.548 922.5,399.5C 650.847,671.653 379.014,943.653 107,1215.5C 105.56,1214.07 105.226,1212.4 106,1210.5C 376.701,939.965 647.201,669.299 917.5,398.5 Z"/></g>
<g><path style="opacity:1" fill="#4b4b4b" d="M 1179.5,572.5 C 1181.45,573.254 1182.28,574.588 1182,576.5C 882.5,876 583,1175.5 283.5,1475C 281.799,1475.34 280.466,1474.68 279.5,1473C 579.701,1172.97 879.701,872.799 1179.5,572.5 Z"/></g>
<g><path style="opacity:1" fill="#585858" d="M 286.5,1067.5 C 286.232,1069.1 286.566,1070.43 287.5,1071.5C 281.833,1077.83 275.833,1083.83 269.5,1089.5C 268.081,1088.55 266.415,1088.22 264.5,1088.5C 271.201,1080.8 278.534,1073.8 286.5,1067.5 Z"/></g>
<g><path style="opacity:1" fill="#4a4a4a" d="M 1327.5,860.5 C 1328.65,860.791 1329.32,861.624 1329.5,863C 1329.33,863.833 1329.17,864.667 1329,865.5C 1076.83,1117.67 824.667,1369.83 572.5,1622C 570.741,1622.8 569.074,1622.63 567.5,1621.5C 820.854,1367.81 1074.19,1114.15 1327.5,860.5 Z"/></g>
<g><path style="opacity:1" fill="#4d4d4d" d="M 1333.5,890.5 C 1334.65,890.791 1335.32,891.624 1335.5,893C 1335.33,893.833 1335.17,894.667 1335,895.5C 1090.86,1139.64 846.694,1383.81 602.5,1628C 600.741,1628.8 599.074,1628.63 597.5,1627.5C 842.827,1381.84 1088.16,1136.17 1333.5,890.5 Z"/></g>
<g><path style="opacity:1" fill="#4d4d4d" d="M 448.5,1014.5 C 449.833,1014.5 451.167,1014.5 452.5,1014.5C 352.589,1114.91 252.422,1215.24 152,1315.5C 150.813,1313.96 150.48,1312.29 151,1310.5C 245.221,1217.61 338.721,1124.11 431.5,1030C 437.336,1025 443.003,1019.83 448.5,1014.5 Z"/></g>
<g><path style="opacity:1" fill="#4c4c4c" d="M 1104.5,502.5 C 1107.17,502.066 1108.33,503.066 1108,505.5C 809.347,804.32 510.513,1102.99 211.5,1401.5C 210.112,1400.41 209.612,1399.08 210,1397.5C 508.395,1099.27 806.562,800.938 1104.5,502.5 Z"/></g>
<g><path style="opacity:1" fill="#4c4c4c" d="M 1212.5,612.5 C 1214.45,613.254 1215.28,614.588 1215,616.5C 917.86,913.64 620.694,1210.81 323.5,1508C 321.799,1508.34 320.466,1507.68 319.5,1506C 617.341,1208.33 915.007,910.493 1212.5,612.5 Z"/></g>
<g><path style="opacity:1" fill="#4d4d4d" d="M 884.5,1013.5 C 885.568,1014.43 886.901,1014.77 888.5,1014.5C 714.516,1189.32 540.016,1363.65 365,1537.5C 363.054,1537.24 362.388,1536.24 363,1534.5C 536.755,1360.58 710.589,1186.91 884.5,1013.5 Z"/></g>
<g><path style="opacity:1" fill="#4b4b4b" d="M 1341.5,991.5 C 1342.65,991.791 1343.32,992.624 1343.5,994C 1343.33,994.833 1343.17,995.667 1343,996.5C 1129.83,1209.67 916.667,1422.83 703.5,1636C 701.5,1636.67 699.5,1636.67 697.5,1636C 912.368,1421.3 1127.03,1206.47 1341.5,991.5 Z"/></g>
<g><path style="opacity:1" fill="#4a4a4a" d="M 264.5,1088.5 C 266.415,1088.22 268.081,1088.55 269.5,1089.5C 218.282,1139.88 167.449,1190.88 117,1242.5C 115.56,1241.07 115.226,1239.4 116,1237.5C 165.728,1187.94 215.228,1138.27 264.5,1088.5 Z"/></g>
<g><path style="opacity:1" fill="#4b4b4b" d="M 994.5,430.5 C 996.8,430.522 997.967,431.522 998,433.5C 711.986,719.68 425.82,1005.68 139.5,1291.5C 138.112,1290.41 137.612,1289.08 138,1287.5C 423.701,1001.97 709.201,716.299 994.5,430.5 Z"/></g>
<g><path style="opacity:1" fill="#4b4b4b" d="M 1341.5,955.5 C 1342.62,957.288 1342.79,959.288 1342,961.5C 1117.5,1186 893,1410.5 668.5,1635C 666.5,1635.67 664.5,1635.67 662.5,1635C 889.035,1408.63 1115.37,1182.13 1341.5,955.5 Z"/></g>
<g><path style="opacity:1" fill="#4d4d4d" d="M 1195.5,592.5 C 1197.2,592.685 1198.53,593.519 1199.5,595C 900.469,894.031 601.302,1193.2 302,1492.5C 300.322,1491.53 299.655,1490.2 300,1488.5C 585.55,1202.62 871.216,917.283 1157,632.5C 1169.67,618.994 1182.51,605.661 1195.5,592.5 Z"/></g>
<g><path style="opacity:1" fill="#4a4a4a" d="M 1342.5,1026.5 C 1343.8,1028.69 1343.8,1031.03 1342.5,1033.5C 1329.15,1046.02 1316.32,1059.02 1304,1072.5C 1116.17,1260.33 928.333,1448.17 740.5,1636C 738.5,1636.67 736.5,1636.67 734.5,1636C 937.322,1432.73 1139.99,1229.56 1342.5,1026.5 Z"/></g>
<g><path style="opacity:1" fill="#585858" d="M 286.5,1285.5 C 286.232,1287.1 286.566,1288.43 287.5,1289.5C 281.833,1295.83 275.833,1301.83 269.5,1307.5C 268.081,1306.55 266.415,1306.22 264.5,1306.5C 271.201,1298.8 278.534,1291.8 286.5,1285.5 Z"/></g>
<g><path style="opacity:1" fill="#484848" d="M 264.5,1306.5 C 266.415,1306.22 268.081,1306.55 269.5,1307.5C 244.747,1331.92 220.08,1356.25 195.5,1380.5C 193.899,1379.97 193.399,1378.97 194,1377.5C 217.756,1353.91 241.256,1330.24 264.5,1306.5 Z"/></g>
<g><path style="opacity:1" fill="#4d4d4d" d="M 1280.5,725.5 C 1283.08,725.722 1283.91,727.055 1283,729.5C 1000.91,1011.59 718.748,1293.75 436.5,1576C 433.866,1576.92 432.699,1576.09 433,1573.5C 715.647,1291.02 998.147,1008.35 1280.5,725.5 Z"/></g>
<g><path style="opacity:1" fill="#4a4a4a" d="M 1339.5,1066.5 C 1340.62,1068.29 1340.79,1070.29 1340,1072.5C 1153.5,1259 967,1445.5 780.5,1632C 778.5,1632.67 776.5,1632.67 774.5,1632C 963.035,1443.63 1151.37,1255.13 1339.5,1066.5 Z"/></g>
<g><path style="opacity:1" fill="#4c4c4c" d="M 1333.5,1108.5 C 1334.04,1108.56 1334.38,1108.89 1334.5,1109.5C 1333.81,1111.44 1333.31,1113.44 1333,1115.5C 1162.89,1285.61 992.721,1455.78 822.5,1626C 820.55,1627.5 818.55,1627.66 816.5,1626.5C 988.881,1453.79 1161.21,1281.12 1333.5,1108.5 Z"/></g>
<g><path style="opacity:1" fill="#4c4c4c" d="M 666.5,1013.5 C 667.568,1014.43 668.901,1014.77 670.5,1014.5C 529.073,1156.59 387.407,1298.26 245.5,1439.5C 243.899,1438.97 243.399,1437.97 244,1436.5C 384.358,1295.21 525.192,1154.21 666.5,1013.5 Z"/></g>
<g><path style="opacity:1" fill="#4d4d4d" d="M 1311.5,803.5 C 1314.08,803.722 1314.91,805.055 1314,807.5C 1047.61,1073.89 781.108,1340.39 514.5,1607C 512.226,1607.46 511.059,1606.63 511,1604.5C 777.926,1337.74 1044.76,1070.74 1311.5,803.5 Z"/></g>
<g><path style="opacity:1" fill="#4d4d4d" d="M 1338.5,922.5 C 1339.61,923.946 1339.78,925.613 1339,927.5C 1332.63,933.531 1326.63,939.864 1321,946.5C 1097.89,1168.28 875.387,1390.78 653.5,1614C 646.864,1619.63 640.531,1625.63 634.5,1632C 632.741,1632.8 631.074,1632.63 629.5,1631.5C 865.602,1394.73 1101.94,1158.4 1338.5,922.5 Z"/></g>
<g><path style="opacity:1" fill="#4f4f4f" d="M 939.5,1545.5 C 939.784,1543.59 939.451,1541.92 938.5,1540.5C 1066.85,1411.65 1195.35,1282.98 1324,1154.5C 1324.17,1156.85 1323.84,1159.18 1323,1161.5C 1195.69,1289.98 1067.85,1417.98 939.5,1545.5 Z"/></g>
<g><path style="opacity:1" fill="#4b4b4b" d="M 1282.5,1268.5 C 1283.24,1268.37 1283.91,1268.54 1284.5,1269C 1282.87,1271.75 1281.37,1274.59 1280,1277.5C 1181.55,1375.95 1083.05,1474.45 984.5,1573C 981.281,1574.95 977.947,1576.29 974.5,1577C 1077.31,1474.35 1179.98,1371.52 1282.5,1268.5 Z"/></g>
<g><path style="opacity:1" fill="#4b4b4b" d="M 1302.5,776.5 C 1304.61,777.052 1305.44,778.386 1305,780.5C 1032.83,1052.67 760.667,1324.83 488.5,1597C 486.597,1597.77 484.93,1597.44 483.5,1596C 756.701,1322.97 1029.7,1049.8 1302.5,776.5 Z"/></g>
<g><path style="opacity:1" fill="#4c4c4c" d="M 1320.5,831.5 C 1322.27,832.314 1322.77,833.648 1322,835.5C 1315.63,841.531 1309.63,847.864 1304,854.5C 1050.55,1107.95 797.054,1361.45 543.5,1615C 541.597,1615.77 539.93,1615.44 538.5,1614C 799.395,1353.27 1060.06,1092.44 1320.5,831.5 Z"/></g>
<g><path style="opacity:1" fill="#494949" d="M 1238.5,1348.5 C 1239.53,1348.9 1239.69,1349.56 1239,1350.5C 1235.31,1355.36 1231.81,1360.36 1228.5,1365.5C 1223.48,1369.68 1218.98,1374.35 1215,1379.5C 1171.68,1422.99 1128.18,1466.32 1084.5,1509.5C 1080.01,1513.48 1075.68,1517.65 1071.5,1522C 1067,1525.17 1062.5,1528.33 1058,1531.5C 1057.33,1530.83 1057.33,1530.17 1058,1529.5C 1119.06,1469.94 1179.23,1409.6 1238.5,1348.5 Z"/></g>
<g><path style="opacity:1" fill="#4c4c4c" d="M 1292.5,750.5 C 1294.38,751.659 1294.88,753.326 1294,755.5C 1016.89,1032.61 739.721,1309.78 462.5,1587C 460.597,1587.77 458.93,1587.44 457.5,1586C 735.98,1307.69 1014.31,1029.19 1292.5,750.5 Z"/></g>
<g><path style="opacity:1" fill="#4c4c4c" d="M 1307.5,1207.5 C 1308.1,1207.74 1308.43,1208.24 1308.5,1209C 1307.53,1211.11 1306.69,1213.28 1306,1215.5C 1178.17,1343.33 1050.33,1471.17 922.5,1599C 919.845,1600.11 917.179,1600.78 914.5,1601C 1045.7,1469.97 1176.7,1338.8 1307.5,1207.5 Z"/></g>
<g><path style="opacity:1" fill="#424242" d="M 938.5,1540.5 C 939.451,1541.92 939.784,1543.59 939.5,1545.5C 922.5,1562.17 905.5,1578.83 888.5,1595.5C 886.901,1595.77 885.568,1595.43 884.5,1594.5C 902.806,1576.86 920.806,1558.86 938.5,1540.5 Z"/></g>
<g><path style="opacity:1" fill="#505050" d="M 884.5,1594.5 C 885.568,1595.43 886.901,1595.77 888.5,1595.5C 882.418,1602.08 876.085,1608.58 869.5,1615C 867.253,1616.31 864.92,1616.98 862.5,1617C 869.338,1609 876.671,1601.5 884.5,1594.5 Z"/></g>
</svg>
